<svg xmlns="http://www.w3.org/2000/svg" viewBox="0 0 512 512">
  <defs>
    <linearGradient id="lf" x1="0%" y1="0%" x2="100%" y2="100%">
      <stop offset="0%" stop-color="#7dd3fc"/>
      <stop offset="40%" stop-color="#38bdf8"/>
      <stop offset="100%" stop-color="#0284c7"/>
    </linearGradient>
    <linearGradient id="rf" x1="100%" y1="0%" x2="0%" y2="100%">
      <stop offset="0%" stop-color="#38bdf8"/>
      <stop offset="40%" stop-color="#0ea5e9"/>
      <stop offset="100%" stop-color="#0369a1"/>
    </linearGradient>
    <linearGradient id="cv" x1="50%" y1="0%" x2="50%" y2="100%">
      <stop offset="0%" stop-color="#0c4a6e"/>
      <stop offset="100%" stop-color="#0c1929"/>
    </linearGradient>
  </defs>
  <rect width="512" height="512" rx="80" fill="#0a0f1a"/>
  <polygon points="100,420 100,80 250,20 400,80 400,420 310,340 250,400 190,340" fill="url(#lf)" opacity="0"/>
  <polygon points="80,430 80,70 250,15 432,70 432,430 320,340 250,400 180,340" fill="url(#cv)" opacity="0"/>
  <polygon points="100,420 100,80 250,20 310,200 250,280 100,340" fill="url(#lf)"/>
  <polygon points="412,420 412,80 262,20 200,200 262,280 412,340" fill="url(#rf)"/>
  <polygon points="250,280 200,200 310,200 250,380" fill="url(#cv)"/>
</svg>
